<svg xmlns="http://www.w3.org/2000/svg" viewBox="10 0 54 52" role="img" aria-label="ADGM">
  <path
    fill="#0087FF"
    d="M24.48,26.09l-5.71,5.71c-.81.81-1.88,1.25-3.02,1.25s-2.22-.44-3.03-1.25l-.06-.06,5.65-5.65-5.65-5.65.06-.06c1.67-1.67,4.38-1.67,6.05,0l5.71,5.71ZM33.88,5.61v45.22h.08c2.36,0,4.28-1.92,4.28-4.28V1.33h-.08c-2.36,0-4.28,1.92-4.28,4.28M20.22,8.19l-.08.03,7.22,17.86-7.22,17.85.08.03c.52.21,1.06.31,1.6.31,1.69,0,3.3-1.01,3.97-2.68l6.27-15.52-6.27-15.53c-.88-2.19-3.38-3.25-5.57-2.36M59.47,20.43l-.06-.06c-1.67-1.67-4.38-1.67-6.05,0l-5.71,5.71,5.71,5.71c.83.83,1.93,1.25,3.03,1.25s2.19-.42,3.03-1.25l.06-.06-5.65-5.65,5.65-5.65ZM51.99,8.22l-.08-.03c-2.19-.88-4.69.18-5.57,2.36l-6.27,15.52,6.27,15.53c.43,1.06,1.24,1.89,2.3,2.34.54.23,1.1.34,1.67.34s1.09-.1,1.6-.31l.08-.03-7.22-17.86,7.22-17.86Z"
  />
</svg>
