<svg xmlns="http://www.w3.org/2000/svg" width="228" height="128" viewBox="0 0 228 128" fill="none">
  <path d="M116.581 65.8252V0H99.3062V83.6143C99.3062 85.2657 97.9752 86.5985 96.3259 86.5985H90.6835V43.7483H73.4091V109.458C73.4091 111.109 72.078 112.442 70.4287 112.442H59.3465L61.5166 110.269C64.0051 107.806 65.394 104.445 65.394 100.94V77.9067C65.394 65.8253 55.8163 55.7429 43.7214 55.569C31.4528 55.3952 21.4411 65.2748 21.4122 77.5011V101.316C21.4122 105.344 22.4828 109.139 24.3347 112.413H19.9944C16.2617 112.413 12.6737 113.89 10.0406 116.556L0 126.609L1.3889 128L4.89008 124.494C5.41092 123.973 6.10537 123.683 6.82875 123.683H42.6508C42.7376 123.683 42.8533 123.683 42.9401 123.683C42.969 123.683 43.0269 123.683 43.0559 123.683C46.3834 123.567 49.5663 122.206 51.939 119.83L57.3789 114.412H67.9403C72.3095 114.412 74.769 113.021 77.2575 110.559L86.8061 101.027C89.2946 98.564 90.6835 95.2033 90.6835 91.6976V88.6265H93.8374C98.2067 88.6265 100.666 87.2359 103.155 84.7732L112.703 75.2413C115.192 72.7786 116.581 69.4178 116.581 65.9122V65.8252ZM48.2353 107.603C48.2353 110.298 46.0362 112.413 43.3452 112.413H38.5998V63.1308C38.5998 60.4364 40.7989 58.2924 43.4899 58.3214C46.123 58.3504 48.2353 60.5813 48.2353 63.2177V107.603Z" fill="#FFFFFF"/>
  <path d="M156.627 88.5675H158.45L152.142 77.3262H150.406L144.098 88.5675H145.892L147.252 86.0758H155.296L156.656 88.5675H156.627ZM147.947 84.7431L150.724 79.615C150.869 79.3542 151.101 78.8907 151.245 78.572H151.274C151.419 78.8907 151.65 79.3542 151.795 79.615L154.544 84.7431H147.947Z" fill="#FFFFFF"/>
  <path d="M167.102 86.7129H164.845V88.5671H167.102V86.7129Z" fill="#FFFFFF"/>
  <path d="M182.987 83.8176C185.157 83.383 185.881 81.8765 185.881 80.6307C185.881 79.3848 184.984 77.2988 181.859 77.2988H174.538V88.5401H176.187V83.9915H181.106L184.318 88.5401H186.315L182.987 83.7886V83.8176ZM176.187 82.6877V78.6895H181.569C183.566 78.6895 184.145 79.7035 184.145 80.6307C184.145 81.5578 183.537 82.6877 181.54 82.6877H176.187Z" fill="#FFFFFF"/>
  <path d="M195.14 86.7129H192.883V88.5671H195.14V86.7129Z" fill="#FFFFFF"/>
  <path d="M216.003 78.572H216.061C216.061 78.8038 216.032 79.2963 216.032 79.6729V88.5675H217.565V77.3262H214.961L210.389 86.1048C210.245 86.3945 210.1 86.7132 210.013 86.974H209.955C209.868 86.7132 209.753 86.3945 209.608 86.1048L205.094 77.3262H202.519V88.5675H204.052V79.6729C204.052 79.1514 204.052 78.7748 203.995 78.572H204.081C204.168 78.8617 204.313 79.2384 204.457 79.557L209.145 88.5675H210.765L215.511 79.557C215.713 79.1804 215.916 78.7168 215.974 78.572H216.003Z" fill="#FFFFFF"/>
  <path d="M227.287 86.7129H225.031V88.5671H227.287V86.7129Z" fill="#FFFFFF"/>
  <path d="M118.751 107.95H109.549V103.141H107.871V114.382H109.549V109.312H118.751V114.382H120.429V103.141H118.751V107.95Z" fill="#FFFFFF"/>
  <path d="M134.434 102.764C130.036 102.764 127.055 105.197 127.055 108.761C127.055 112.325 130.036 114.758 134.434 114.758C138.832 114.758 141.812 112.325 141.812 108.761C141.812 105.197 138.832 102.764 134.434 102.764ZM134.434 113.397C131.077 113.397 128.791 111.513 128.791 108.761C128.791 106.009 131.077 104.125 134.434 104.125C137.79 104.125 140.076 106.009 140.076 108.761C140.076 111.513 137.79 113.397 134.434 113.397Z" fill="#FFFFFF"/>
  <path d="M150.146 103.141H148.468V114.382H158.711V112.962H150.146V103.141Z" fill="#FFFFFF"/>
  <path d="M171.413 103.142H164.99V114.384H171.442C175.348 114.384 178.242 112.211 178.242 108.56C178.242 104.91 175.435 103.113 171.413 103.113V103.142ZM171.471 113.022H166.668V104.504H171.24C174.336 104.504 176.535 105.75 176.535 108.589C176.535 111.428 174.625 113.051 171.5 113.051L171.471 113.022Z" fill="#FFFFFF"/>
  <path d="M186.547 103.141H184.897V114.382H186.547V103.141Z" fill="#FFFFFF"/>
  <path d="M205.123 111.253V112.615H205.094C204.949 112.267 204.689 111.919 204.313 111.572L196.182 103.141H194.156V114.382H195.69V104.734H195.748C195.893 105.024 196.153 105.371 196.5 105.719L204.863 114.382H206.628V103.141H205.123V111.253Z" fill="#FFFFFF"/>
  <path d="M220.574 109.806H225.783V109.893C225.783 111.863 223.699 113.398 220.517 113.398C217.334 113.398 214.99 111.544 214.99 108.763C214.99 105.981 217.131 104.098 220.488 104.098C223.844 104.098 225.002 105.17 225.522 106.735L227.259 106.416C226.535 104.185 224.047 102.736 220.603 102.736C217.16 102.736 213.283 105.141 213.283 108.763C213.283 112.384 216.032 114.76 220.256 114.76C224.481 114.76 224.857 113.862 225.87 112.326L225.985 114.383H227.287V108.444H220.574V109.806Z" fill="#FFFFFF"/>
</svg>
