<svg xmlns="http://www.w3.org/2000/svg" viewBox="0 0 72 88" fill="none" role="img" aria-label="A.R.M. Holding emblem">
  <!-- Stylised calligraphic mark  three vertical strokes -->
  <path fill="currentColor" d="M8 6c0 18 2 34 6 48 2 8 4 14 6 18 1 2 2 3 4 3 2 0 3-1 4-3 2-4 4-10 6-18 4-14 6-30 6-48V4H8v2z"/>
  <path fill="currentColor" d="M30 2c0 22 3 42 9 58 2 5 4 9 7 12 2 2 4 3 6 3s4-1 6-3c3-3 5-7 7-12 6-16 9-36 9-58V0H30v2z"/>
  <path fill="currentColor" d="M54 10c0 16 2 30 5 42 2 7 4 12 7 15 1 1 3 2 4 2 1 0 3-1 4-2 3-3 5-8 7-15 3-12 5-26 5-42 0-4-1-6-2-8-2-3-5-4-8-4s-6 1-8 4c-1 2-2 4-2 8z"/>
</svg>
