<svg xmlns="http://www.w3.org/2000/svg" viewBox="0 0 118 128" fill="none" role="img" aria-label="A.R.M. Holding">
  <path d="M116.581 65.8252V0H99.3062V83.6143C99.3062 85.2657 97.9752 86.5985 96.3259 86.5985H90.6835V43.7483H73.4091V109.458C73.4091 111.109 72.078 112.442 70.4287 112.442H59.3465L61.5166 110.269C64.0051 107.806 65.394 104.445 65.394 100.94V77.9067C65.394 65.8253 55.8163 55.7429 43.7214 55.569C31.4528 55.3952 21.4411 65.2748 21.4122 77.5011V101.316C21.4122 105.344 22.4828 109.139 24.3347 112.413H19.9944C16.2617 112.413 12.6737 113.89 10.0406 116.556L0 126.609L1.3889 128L4.89008 124.494C5.41092 123.973 6.10537 123.683 6.82875 123.683H42.6508C42.7376 123.683 42.8533 123.683 42.9401 123.683C42.969 123.683 43.0269 123.683 43.0559 123.683C46.3834 123.567 49.5663 122.206 51.939 119.83L57.3789 114.412H67.9403C72.3095 114.412 74.769 113.021 77.2575 110.559L86.8061 101.027C89.2946 98.564 90.6835 95.2033 90.6835 91.6976V88.6265H93.8374C98.2067 88.6265 100.666 87.2359 103.155 84.7732L112.703 75.2413C115.192 72.7786 116.581 69.4178 116.581 65.9122V65.8252ZM48.2353 107.603C48.2353 110.298 46.0362 112.413 43.3452 112.413H38.5998V63.1308C38.5998 60.4364 40.7989 58.2924 43.4899 58.3214C46.123 58.3504 48.2353 60.5813 48.2353 63.2177V107.603Z" fill="currentColor"/>
</svg>
